# xmcd
#
# Track frame offsets:
#	150
#	12712
#	27975
#	41625
#	56062
#	72112
#	82650
#	98775
#	112537
#	128662
#	143175
#
# Disc length: 2152 seconds
#
# Revision: 4
# Processed by: cddbd v1.5.2PL0 Copyright (c) Steve Scherf et al.
# Submitted via: EasyCDDAExtractor 16.0.0.1
#
DISCID=8708660b
DTITLE=Alecia Nugent
DYEAR=2004
DGENRE=Bluegrass
TTITLE0=Alecia Nugent - I'll Stay Around
TTITLE1=Alecia Nugent - Red  White And Blue
TTITLE2=Alecia Nugent - If Your Heart Could Talk
TTITLE3=Alecia Nugent - My First Mistake
TTITLE4=Alecia Nugent - Jealous Heart
TTITLE5=Alecia Nugent - Think Of What You've Done
TTITLE6=Alecia Nugent - Paper And Pen
TTITLE7=Alecia Nugent - But I Do
TTITLE8=Alecia Nugent and Carl Jackson - For Love's Sake
TTITLE9=Alecia Nugent - You Don't Have To Go Home
TTITLE10=Alecia Nugent - Blame It On The Train
EXTD=
EXTT0=
EXTT1=
EXTT2=
EXTT3=
EXTT4=
EXTT5=
EXTT6=
EXTT7=
EXTT8=
EXTT9=
EXTT10=
PLAYORDER=
